<svg version="1.1" viewBox="0.0 0.0 248.3228346456693 320.8031496062992" fill="none" stroke="none" stroke-linecap="square" stroke-miterlimit="10" xmlns:xlink="http://www.w3.org/1999/xlink" xmlns="http://www.w3.org/2000/svg"><clipPath id="p.0"><path d="m0 0l248.32283 0l0 320.80316l-248.32283 0l0 -320.80316z" clip-rule="nonzero"/></clipPath><g clip-path="url(#p.0)"><path fill="#000000" fill-opacity="0.0" d="m0 0l248.32283 0l0 320.80316l-248.32283 0z" fill-rule="evenodd"/><path fill="#000000" fill-opacity="0.0" d="m47.421722 17.000954l137.98425 0l0 222.99213l-137.98425 0z" fill-rule="evenodd"/><path fill="#313443" d="m184.89047 187.28096l-32.578125 0l-8.4375 -24.6875l-45.28125 0l-8.453125 24.6875l-31.75 0l45.125 -122.14063l36.25 0l45.125 122.14063zm-48.65625 -47.09375l-15.0 -43.796883l-15.015625 43.796883l30.015625 0z" fill-rule="nonzero"/><path fill="#000000" fill-opacity="0.0" d="m223.07527 174.77559l0 112.0945l-213.32285 0l0 -112.0945z" fill-rule="evenodd"/><path fill="#313443" d="m185.29823 193.16658l0 24.609375q0 23.828125 -2.1875 32.21875q-2.1875 8.406265 -7.1875 12.781265q-5.0 4.375 -11.140625 5.46875q-6.125 1.09375 -24.09375 1.09375l-44.296883 0q-17.03125 0 -22.78125 -1.609375q-5.734375 -1.59375 -8.984375 -5.578125q-3.2343712 -3.984375 -4.531246 -9.843765q-1.28125 -5.859375 -1.28125 -17.65625l0 -41.484375l126.484375 0zm-21.640625 32.890625l-83.20313 0q0 7.109375 2.84375 8.75q2.859375 1.640625 15.515625 1.640625l49.140633 0q8.59375 0 11.015625 -0.546875q2.421875 -0.546875 3.546875 -2.5q1.140625 -1.953125 1.140625 -7.34375z" fill-rule="nonzero"/></g></svg>